<svg width="413" height="376" viewBox="0 0 413 376" fill="none" xmlns="http://www.w3.org/2000/svg">
<circle cx="224.5" cy="199.5" r="112.5" stroke="#EB1F27" stroke-width="4" stroke-dasharray="8 8"/>
<g clip-path="url(#clip0_380_36)">
<path d="M221.692 135C221.692 141.382 221.716 147.493 221.644 153.604C221.638 154.072 221.04 154.709 220.553 154.974C211.766 159.801 202.952 164.582 194.145 169.373C190.946 171.111 187.763 172.876 184.54 174.576C183.786 174.976 183.458 175.421 183.461 176.296C183.491 189.619 183.47 202.942 183.53 216.266C183.53 216.851 184.032 217.648 184.543 217.986C196.348 225.808 208.18 233.594 220.036 241.341C221.067 242.016 221.481 242.709 221.463 243.963C221.385 249.68 221.43 255.396 221.43 261.115C221.43 261.644 221.43 262.173 221.43 263.003C218.68 261.459 216.176 260.067 213.681 258.654C197.62 249.557 181.567 240.445 165.491 231.378C164.406 230.763 164 230.108 164 228.833C164.045 208.3 164.036 187.77 164.006 167.237C164.006 166.198 164.201 165.544 165.22 165.003C183.629 155.21 202.014 145.372 220.408 135.55C220.745 135.37 221.109 135.248 221.692 135Z" fill="#EB1F27"/>
<path d="M228.738 262.773C228.738 262.015 228.738 261.483 228.738 260.954C228.738 255.387 228.804 249.82 228.696 244.256C228.666 242.757 229.192 241.951 230.397 241.162C242.16 233.483 253.881 225.742 265.64 218.061C266.428 217.547 266.656 217.006 266.656 216.131C266.635 202.91 266.611 189.691 266.686 176.469C266.695 175.071 265.896 174.71 264.988 174.217C253.303 167.859 241.631 161.482 229.919 155.172C228.783 154.559 228.404 153.875 228.422 152.624C228.489 147.607 228.444 142.586 228.441 137.566C228.441 136.837 228.441 136.108 228.441 135.045C230.124 135.917 231.525 136.622 232.907 137.36C250.216 146.621 267.519 155.894 284.846 165.123C285.751 165.604 286.003 166.133 286.003 167.088C285.976 187.765 285.973 208.441 285.994 229.114C285.994 230.073 285.736 230.619 284.855 231.115C269.491 239.767 254.148 248.458 238.805 257.143C235.944 258.762 233.094 260.402 230.232 262.024C229.814 262.259 229.372 262.457 228.738 262.773Z" fill="#F16100"/>
<path d="M202.3 173.934C208.799 174.256 215.157 174.346 221.46 174.955C226.634 175.454 230.965 180.301 231.687 185.456C232.063 188.15 232.087 190.796 231.296 193.412C230.211 197.014 227.776 199.439 224.433 201.049C223.859 201.327 223.276 201.59 222.527 201.936C226.42 209.241 230.274 216.484 234.299 224.04C230.812 224.04 227.638 224.076 224.463 223.992C224.091 223.983 223.622 223.383 223.39 222.953C219.969 216.624 216.587 210.275 213.176 203.94C212.935 203.492 212.535 203.128 212.211 202.727C212.069 202.793 211.931 202.859 211.79 202.925C211.754 203.498 211.682 204.068 211.682 204.642C211.676 210.555 211.649 216.469 211.706 222.382C211.718 223.631 211.447 224.159 210.058 224.103C207.515 223.995 204.966 224.073 202.3 224.073V173.934ZM211.787 193.768C214.318 193.6 216.774 193.615 219.164 193.23C221.659 192.83 222.768 191.071 222.72 188.323C222.678 186.125 221.085 184.07 218.908 183.798C216.594 183.509 214.243 183.488 211.787 183.341V193.768Z" fill="#EB1F27"/>
<path d="M241.463 174.346H250.752V223.891H241.463V174.346Z" fill="#F05F00"/>
</g>
<path d="M253.125 58.125H196.875V1.875H200.625V54.375H253.125V58.125Z" fill="#F16100"/>
<path d="M217.5 50.625H204.375V24.375H217.5V50.625ZM234.375 50.625H221.25V18.75H234.375V50.625ZM251.208 50.625H238.083V11.25H251.208V50.625Z" fill="#F16100"/>
<path d="M327.571 370H344.714C345.851 370 346.941 369.548 347.745 368.745C348.548 367.941 349 366.851 349 365.714V314.286C349 313.149 348.548 312.059 347.745 311.255C346.941 310.452 345.851 310 344.714 310H327.571C326.435 310 325.345 310.452 324.541 311.255C323.737 312.059 323.286 313.149 323.286 314.286V365.714C323.286 366.851 323.737 367.941 324.541 368.745C325.345 369.548 326.435 370 327.571 370ZM327.571 370H304M314.714 357.143V370M323.286 331.429H349M329.714 357.143H342.571M293.286 322.857H323.286V357.143H293.286C292.149 357.143 291.059 356.691 290.255 355.888C289.452 355.084 289 353.994 289 352.857V327.143C289 326.006 289.452 324.916 290.255 324.112C291.059 323.309 292.149 322.857 293.286 322.857Z" stroke="#F16100" stroke-width="5"/>
<path d="M105.375 313.062C105.375 312.615 105.553 312.186 105.869 311.869C106.186 311.553 106.615 311.375 107.062 311.375H141.94C142.387 311.375 142.817 311.553 143.133 311.869C143.449 312.186 143.627 312.615 143.627 313.062V332.779L147.002 335.245V313.062C147.002 311.72 146.469 310.432 145.519 309.483C144.57 308.533 143.282 308 141.94 308H107.062C105.72 308 104.432 308.533 103.483 309.483C102.533 310.432 102 311.72 102 313.062V336.688C102 338.03 102.533 339.318 103.483 340.267C104.432 341.217 105.72 341.75 107.062 341.75H128.222L127.857 338.375H107.062C106.615 338.375 106.186 338.197 105.869 337.881C105.553 337.564 105.375 337.135 105.375 336.688V313.062Z" fill="#F16100"/>
<path d="M139.575 329.631H139.321L136.826 327.809L136.191 324.78C136.182 324.753 136.169 324.74 136.151 324.74C136.133 324.74 136.119 324.753 136.11 324.78L135.705 326.99L135.102 326.551C134.104 325.821 132.873 325.482 131.642 325.597L130.343 321.207L128.872 326.751C127.983 327.494 127.38 328.511 127.153 329.631H125.76C125.634 329.631 125.558 329.573 125.531 329.456L124.552 324.78C124.543 324.753 124.529 324.74 124.511 324.74C124.493 324.74 124.479 324.753 124.469 324.78L123.614 329.442C123.587 329.568 123.514 329.631 123.395 329.631H121.37C121.318 329.631 121.267 329.617 121.222 329.591C121.18 329.557 121.151 329.509 121.141 329.456L118.702 321.207L116.51 329.456C116.483 329.573 116.411 329.631 116.294 329.631H114.119C113.993 329.631 113.916 329.573 113.889 329.456L112.91 324.78C112.901 324.753 112.888 324.74 112.87 324.74C112.852 324.74 112.838 324.753 112.829 324.78L111.974 329.442C111.946 329.568 111.872 329.631 111.754 329.631H109.729C109.677 329.631 109.625 329.617 109.58 329.591C109.538 329.557 109.509 329.509 109.499 329.456L106.808 320.35C106.8 320.328 106.796 320.305 106.795 320.282C106.795 320.173 106.858 320.118 106.984 320.118H109.295C109.415 320.118 109.487 320.177 109.513 320.296L110.667 324.726C110.676 324.753 110.69 324.771 110.708 324.78C110.726 324.78 110.739 324.762 110.748 324.726L111.659 320.294C111.686 320.177 111.764 320.118 111.891 320.118H113.876C113.993 320.118 114.065 320.177 114.092 320.296L115.111 324.726C115.12 324.762 115.133 324.78 115.151 324.78C115.171 324.78 115.185 324.762 115.194 324.726L116.213 320.294C116.24 320.177 116.312 320.118 116.429 320.118H120.936C121.055 320.118 121.127 320.177 121.154 320.296L122.309 324.726C122.318 324.753 122.331 324.771 122.349 324.78C122.367 324.78 122.381 324.762 122.39 324.726L123.301 320.294C123.328 320.177 123.405 320.118 123.533 320.118H125.515C125.635 320.118 125.708 320.177 125.733 320.296L126.752 324.726C126.761 324.762 126.775 324.78 126.793 324.78C126.811 324.78 126.824 324.762 126.833 324.726L127.853 320.294C127.881 320.177 127.954 320.118 128.071 320.118H132.578C132.695 320.118 132.767 320.177 132.796 320.296L133.95 324.726C133.959 324.753 133.973 324.771 133.991 324.78C134.009 324.78 134.022 324.762 134.031 324.726L134.942 320.294C134.969 320.177 135.047 320.118 135.174 320.118H137.156C137.276 320.118 137.349 320.177 137.375 320.296L138.394 324.726C138.403 324.762 138.416 324.78 138.434 324.78C138.452 324.78 138.466 324.762 138.475 324.726L139.494 320.294C139.521 320.177 139.594 320.118 139.712 320.118H142.037C142.109 320.118 142.158 320.141 142.185 320.186C142.221 320.222 142.23 320.276 142.212 320.35L139.793 329.456C139.766 329.573 139.692 329.631 139.575 329.631Z" fill="#F16100"/>
<path fill-rule="evenodd" clip-rule="evenodd" d="M131.265 329.363C131.549 329.2 131.873 329.123 132.199 329.14C132.526 329.158 132.84 329.27 133.104 329.462L144.03 337.445C144.296 337.64 144.499 337.908 144.615 338.217C144.73 338.526 144.753 338.861 144.679 339.183C144.606 339.504 144.44 339.797 144.203 340.025C143.965 340.254 143.665 340.407 143.341 340.467L139.984 341.09L141.786 344.213C142.007 344.601 142.065 345.06 141.948 345.49C141.831 345.92 141.549 346.286 141.163 346.509C140.777 346.732 140.319 346.793 139.888 346.679C139.457 346.565 139.089 346.285 138.864 345.901L137.059 342.776L134.841 345.374C134.627 345.625 134.344 345.808 134.027 345.899C133.711 345.991 133.374 345.988 133.059 345.891C132.744 345.793 132.465 345.606 132.255 345.351C132.045 345.097 131.915 344.786 131.88 344.459L130.431 331.006C130.395 330.681 130.455 330.353 130.603 330.061C130.751 329.769 130.98 329.527 131.263 329.363M134.814 340.208L135.266 339.677C136.019 338.797 137.052 338.201 138.191 337.99L138.877 337.862L134.193 334.442L134.814 340.208Z" fill="#F16100"/>
<path d="M169.708 345.667C171.41 345.667 173.042 344.991 174.246 343.788M169.708 345.667C168.006 345.667 166.374 344.991 165.171 343.788M169.708 345.667V350.479M174.246 343.788C175.449 342.584 176.125 340.952 176.125 339.25M174.246 343.788L177.648 347.19M176.125 339.25C176.125 337.548 175.449 335.916 174.246 334.713M176.125 339.25H180.938M174.246 334.713C173.042 333.509 171.41 332.833 169.708 332.833M174.246 334.713L177.648 331.31M169.708 332.833C168.006 332.833 166.374 333.509 165.171 334.713M169.708 332.833V328.021M165.171 334.713C163.967 335.916 163.291 337.548 163.291 339.25M165.171 334.713L161.768 331.31M163.291 339.25C163.291 340.952 163.967 342.584 165.171 343.788M163.291 339.25H158.479M165.171 343.788L161.768 347.19M168.639 328.021H170.778M176.893 330.555L178.404 332.066M180.938 338.18V340.32M178.404 346.435L176.893 347.946M170.778 350.479H168.639M162.524 347.946L161.013 346.435M158.479 340.32V338.18M161.013 332.066L162.524 330.555M148.781 356.094L152.197 353.532C152.546 353.271 152.944 353.083 153.367 352.981C153.791 352.879 154.231 352.864 154.66 352.938C155.089 353.011 155.499 353.172 155.864 353.409C156.23 353.646 156.543 353.955 156.785 354.318C157.135 354.844 157.322 355.462 157.322 356.094C157.322 356.726 157.135 357.344 156.785 357.87L153.426 362.907C152.394 364.454 150.917 365.651 149.19 366.341L144.188 368.344M150.313 345.375L142.973 348.521C140.804 349.45 139.076 351.178 138.146 353.346L135.743 358.952C135.253 360.097 135 361.329 135 362.574V372.938" stroke="#F16100" stroke-width="4.5" stroke-linecap="round" stroke-linejoin="round"/>
<path d="M180.938 354.563V368.344C180.938 369.562 180.454 370.731 179.592 371.592C178.731 372.454 177.562 372.938 176.344 372.938H154.906C153.688 372.938 152.519 372.454 151.658 371.592C150.796 370.731 150.312 369.562 150.312 368.344V365.802M150.312 354.944V331.594C150.312 330.375 150.796 329.207 151.658 328.345C152.519 327.484 153.688 327 154.906 327H158.479" stroke="#F16100" stroke-width="4.5" stroke-linecap="round" stroke-linejoin="round"/>
<path d="M79.2499 103.198C79.2499 104.192 79.645 105.146 80.3482 105.849C81.0515 106.552 82.0053 106.948 82.9999 106.948C83.9944 106.948 84.9483 106.552 85.6515 105.849C86.3548 105.146 86.7499 104.192 86.7499 103.198V76.355L98.9111 88.5163L104.214 83.2137L82.9999 62L61.7861 83.2137L67.0886 88.5163L79.2499 76.3625V103.198Z" fill="#F16100"/>
<path d="M53 99.5H60.5V114.5H105.5V99.5H113V114.5C113 116.489 112.21 118.397 110.803 119.803C109.397 121.21 107.489 122 105.5 122H60.5C58.5109 122 56.6032 121.21 55.1967 119.803C53.7902 118.397 53 116.489 53 114.5V99.5Z" fill="#F16100"/>
<path d="M398 110.333C398 113.427 396.771 116.395 394.583 118.583C392.395 120.771 389.428 122 386.334 122C383.239 122 380.272 120.771 378.084 118.583C375.896 116.395 374.667 113.427 374.667 110.333C374.667 107.239 375.896 104.272 378.084 102.084C380.272 99.8957 383.239 98.6665 386.334 98.6665C389.428 98.6665 392.395 99.8957 394.583 102.084C396.771 104.272 398 107.239 398 110.333Z" stroke="#F16100" stroke-width="5" stroke-linecap="round" stroke-linejoin="round"/>
<path d="M386.333 98.6667H349.667C346.572 98.6667 343.605 99.8958 341.417 102.084C339.229 104.272 338 107.239 338 110.333C338 113.428 339.229 116.395 341.417 118.583C343.605 120.771 346.572 122 349.667 122H386.333C389.428 122 392.395 120.771 394.583 118.583C396.771 116.395 398 113.428 398 110.333C398 107.239 396.771 104.272 394.583 102.084C392.395 99.8958 389.428 98.6667 386.333 98.6667ZM338 73.6667C338 75.1988 338.302 76.7158 338.888 78.1313C339.474 79.5468 340.334 80.8329 341.417 81.9162C342.5 82.9996 343.787 83.859 345.202 84.4453C346.617 85.0316 348.135 85.3333 349.667 85.3333C351.199 85.3333 352.716 85.0316 354.131 84.4453C355.547 83.859 356.833 82.9996 357.916 81.9162C359 80.8329 359.859 79.5468 360.445 78.1313C361.032 76.7158 361.333 75.1988 361.333 73.6667C361.333 70.5725 360.104 67.605 357.916 65.4171C355.728 63.2292 352.761 62 349.667 62C346.572 62 343.605 63.2292 341.417 65.4171C339.229 67.605 338 70.5725 338 73.6667Z" stroke="#F16100" stroke-width="5" stroke-linecap="round" stroke-linejoin="round"/>
<path d="M349.667 62H386.333C387.865 62 389.383 62.3018 390.798 62.8881C392.213 63.4744 393.5 64.3337 394.583 65.4171C395.666 66.5004 396.526 67.7866 397.112 69.202C397.698 70.6175 398 72.1346 398 73.6667C398 75.1988 397.698 76.7158 397.112 78.1313C396.526 79.5468 395.666 80.8329 394.583 81.9162C393.5 82.9996 392.213 83.859 390.798 84.4453C389.383 85.0316 387.865 85.3333 386.333 85.3333H349.667C348.135 85.3333 346.617 85.0316 345.202 84.4453C343.787 83.859 342.5 82.9996 341.417 81.9162C340.334 80.8329 339.474 79.5468 338.888 78.1313C338.302 76.7158 338 75.1988 338 73.6667C338 72.1346 338.302 70.6175 338.888 69.202C339.474 67.7866 340.334 66.5004 341.417 65.4171C342.5 64.3337 343.787 63.4744 345.202 62.8881C346.617 62.3018 348.135 62 349.667 62Z" stroke="#F16100" stroke-width="5" stroke-linecap="round" stroke-linejoin="round"/>
<path d="M89.8513 222.513V214.48H85.8284V222.513H77.6993V226.507H85.8284V234.54H89.8513V226.507H98V222.513H89.8513ZM68.2717 216.985C69.3189 217.002 70.3463 217.275 71.2655 217.78C72.1847 218.285 72.9684 219.007 73.549 219.884L73.8381 220.289H78.5813L77.8659 218.863C76.9802 217.056 75.6157 215.529 73.9228 214.452C72.2299 213.374 70.2744 212.789 68.2717 212.758C65.2788 212.865 62.4492 214.158 60.3996 216.356C58.35 218.554 57.2467 221.477 57.33 224.49C57.2428 227.51 58.3477 230.441 60.403 232.642C62.4582 234.844 65.2963 236.136 68.2962 236.237C70.3023 236.205 72.2606 235.616 73.9547 234.534C75.6488 233.452 77.0126 231.92 77.8953 230.107L78.6058 228.677H73.8626L73.5735 229.081C72.9929 229.958 72.2092 230.681 71.29 231.186C70.3707 231.691 69.3434 231.964 68.2962 231.981C66.4211 231.871 64.6649 231.021 63.4103 229.614C62.1557 228.207 61.5043 226.358 61.5979 224.47C61.5818 222.402 62.3737 220.409 63.8029 218.923C64.979 217.707 66.586 217.01 68.2717 216.985ZM85.7892 245.932H4.0817V203.068H85.7892V210.243H89.8709V199H0V250H89.8709V238.776H85.7892V245.932ZM24.99 221.822C23.6229 221.877 22.05 221.877 21.8442 221.877C18.5436 221.713 15.2896 222.712 12.642 224.702C11.935 225.354 11.3751 226.151 10.9998 227.039C10.6245 227.927 10.4426 228.886 10.4664 229.851C10.4234 230.86 10.6448 231.864 11.1083 232.76C11.5718 233.657 12.2612 234.415 13.1075 234.959C14.6994 235.885 16.518 236.341 18.3554 236.276C20.4276 236.268 22.4812 235.882 24.4167 235.137C25.0329 234.873 25.6305 234.566 26.2052 234.22L26.2346 235.748H30.4486V223.277C30.4486 222.458 30.4143 221.339 30.3751 220.811C30.1938 217.774 28.6503 212.684 20.3399 212.684C18.2987 212.518 16.2635 213.072 14.5836 214.25C12.9036 215.429 11.6836 217.159 11.1328 219.145L10.682 221.033H15.0185L15.3419 219.929C15.484 219.436 16.4052 216.925 20.3595 216.925C24.3138 216.925 25.9651 218.124 26.1513 221.078C26.1448 221.288 26.1546 221.518 26.1807 221.768H25.0096L24.99 221.822ZM15.5673 227.789C17.4247 226.578 19.6141 225.986 21.8246 226.098H22.2117L26.2395 226.034C26.246 226.882 26.2346 227.788 26.2052 228.751V228.84C25.2271 229.852 24.062 230.663 22.7752 231.226C20.4238 232.164 17.8164 232.224 15.4252 231.394C15.1741 231.23 14.9734 230.998 14.8453 230.726C14.7173 230.453 14.667 230.15 14.7 229.851C14.6803 229.463 14.7481 229.077 14.8984 228.72C15.0486 228.363 15.2773 228.044 15.5673 227.789ZM56.301 235.788V213.232H51.7489L44.296 229.436L36.8235 213.232H32.291V235.788H36.5197V222.735L42.5271 235.788H46.0306L52.0331 222.735V235.788H56.301Z" fill="#F16100"/>
<path d="M396.501 236.5C396.501 242.5 389.001 247 389.001 251.5H383C383 247 375.5 242.5 375.5 236.5C375.5 230.71 380.21 226 386 226C391.791 226 396.501 230.71 396.501 236.5ZM389.001 254.5H383V259H389.001V254.5ZM407.001 235C407.001 240.04 405.231 244.63 402.261 248.26L406.521 252.52C408.827 249.828 410.579 246.707 411.676 243.336C412.774 239.965 413.195 236.411 412.917 232.877C412.638 229.343 411.664 225.899 410.052 222.742C408.44 219.585 406.22 216.778 403.521 214.48L399.261 218.74C401.676 220.707 403.623 223.186 404.962 225.998C406.301 228.811 406.997 231.885 407.001 235ZM398.001 211L386 199V208C378.839 208 371.972 210.845 366.908 215.908C361.845 220.972 359 227.839 359 235C359 241.69 361.46 247.81 365.48 252.52L369.74 248.26C366.668 244.525 364.992 239.836 365 235C365 223.42 374.42 214 386 214V223L398.001 211Z" fill="#F16100"/>
<defs>
<clipPath id="clip0_380_36">
<rect width="122" height="128" fill="white" transform="translate(164 135)"/>
</clipPath>
</defs>
</svg>
