<svg width="61" height="60" viewBox="0 0 61 60" fill="none" xmlns="http://www.w3.org/2000/svg">
<path d="M52.5078 7.50326L59.2083 8.84256C59.5681 8.91452 59.8639 9.17838 59.9679 9.5342C60.0204 9.70704 60.025 9.89088 59.9814 10.0662C59.9377 10.2415 59.8474 10.4016 59.72 10.5297L54.2309 16.0228C53.5731 16.6769 52.6837 17.0447 51.7561 17.0463H47.2025L35.7685 28.4843C35.9866 29.308 36.0267 30.1687 35.8861 31.0091C35.7456 31.8494 35.4275 32.6502 34.9532 33.358C34.4789 34.0659 33.8591 34.6645 33.1353 35.114C32.4115 35.5635 31.6002 35.8537 30.7554 35.965C29.9107 36.0764 29.0519 36.0065 28.2363 35.76C27.4207 35.5135 26.667 35.096 26.0254 34.5353C25.3838 33.9746 24.869 33.2837 24.5154 32.5085C24.1618 31.7332 23.9774 30.8916 23.9746 30.0395C23.9744 29.1193 24.186 28.2114 24.593 27.386C25 26.5607 25.5914 25.8401 26.3216 25.28C27.0517 24.7199 27.901 24.3354 28.8036 24.1562C29.7062 23.977 30.6379 24.0079 31.5267 24.2465L42.9647 12.8045V8.25886C42.9647 7.33135 43.3325 6.43981 43.9882 5.78415L49.4813 0.291012C49.6094 0.163594 49.7696 0.0732591 49.9448 0.0296133C50.1201 -0.0140325 50.304 -0.00935753 50.4768 0.0431412C50.8326 0.147087 51.0965 0.442933 51.1684 0.802746L52.5078 7.50326Z" fill="white"/>
<path d="M5.98397 30.0383C5.98808 33.4683 6.72775 36.8576 8.15311 39.9775C9.57846 43.0974 11.6563 45.8753 14.2466 48.1239C16.8368 50.3724 19.8791 52.0393 23.1684 53.0121C26.4576 53.9849 29.9172 54.241 33.3138 53.7631C36.7104 53.2851 39.965 52.0843 42.858 50.2416C45.7511 48.3989 48.2153 45.9572 50.0845 43.0812C51.9536 40.2051 53.1843 36.9617 53.6933 33.5696C54.2024 30.1775 53.9781 26.7157 53.0355 23.4177C52.9031 23.0324 52.8506 22.6242 52.881 22.2179C52.9115 21.8117 53.0243 21.4159 53.2126 21.0546C53.401 20.6933 53.6608 20.3742 53.9764 20.1165C54.292 19.8589 54.6567 19.6682 55.0484 19.556C55.4401 19.4439 55.8504 19.4126 56.2546 19.4641C56.6587 19.5156 57.0481 19.6488 57.3991 19.8556C57.7502 20.0624 58.0554 20.3384 58.2963 20.667C58.5372 20.9955 58.7088 21.3696 58.8005 21.7666C60.6256 28.1534 60.2789 34.9653 57.8148 41.1338C55.3506 47.3023 50.9085 52.4783 45.1852 55.8497C39.4619 59.2211 32.7814 60.5971 26.1916 59.762C19.6019 58.9269 13.4758 55.9278 8.77451 51.2352C4.07833 46.5351 1.07603 40.4084 0.238975 33.8172C-0.598075 27.2259 0.77753 20.5433 4.14981 14.8185C7.5221 9.0937 12.7001 4.65094 18.8708 2.18774C25.0416 -0.275468 31.8556 -0.619631 38.2432 1.20928C39.0037 1.43162 39.6454 1.94597 40.0279 2.63995C40.4104 3.33392 40.5026 4.15109 40.2844 4.91286C40.0662 5.67463 39.5554 6.31907 38.8635 6.70534C38.1716 7.09161 37.355 7.1883 36.592 6.97428C33.0202 5.94861 29.2589 5.76686 25.6048 6.44336C21.9506 7.11986 18.5037 8.63612 15.5358 10.8725C12.5678 13.1089 10.1601 16.0043 8.50249 19.3304C6.84487 22.6564 5.9827 26.3221 5.98397 30.0383Z" fill="white"/>
<path d="M17.9783 30.0379C17.9785 32.2232 18.5754 34.3668 19.7044 36.2378C20.8335 38.1087 22.452 39.6359 24.3852 40.6546C26.3185 41.6732 28.4932 42.1447 30.6747 42.0183C32.8563 41.8918 34.9619 41.1721 36.7645 39.9368C38.5667 38.6984 39.9961 36.9908 40.8981 34.9988C41.8 33.0068 42.1402 30.8061 41.8818 28.6347C41.812 28.1077 41.8838 27.5717 42.0899 27.0818C42.2961 26.5919 42.6291 26.1657 43.0546 25.8473C43.4802 25.5288 43.983 25.3295 44.5111 25.2699C45.0393 25.2104 45.5738 25.2926 46.0597 25.5083C46.5454 25.7212 46.9659 26.059 47.2785 26.4874C47.591 26.9159 47.7843 27.4195 47.8387 27.947C48.2731 31.6575 47.5417 35.4112 45.7459 38.6871C43.9501 41.9629 41.179 44.5985 37.8173 46.228C34.4556 47.8575 30.67 48.4001 26.986 47.7804C23.3019 47.1607 19.9021 45.4096 17.2585 42.7699C14.6149 40.1303 12.8586 36.7332 12.2333 33.0501C11.608 29.367 12.1448 25.5806 13.7692 22.2164C15.3936 18.8522 18.025 16.0772 21.2981 14.2764C24.5713 12.4756 28.3238 11.7385 32.035 12.1672C32.4323 12.2041 32.8183 12.3199 33.1704 12.5079C33.5224 12.6959 33.8334 12.9523 34.085 13.262C34.3367 13.5717 34.524 13.9286 34.636 14.3116C34.7479 14.6947 34.7823 15.0962 34.7371 15.4928C34.6918 15.8893 34.5679 16.2728 34.3725 16.6207C34.1771 16.9687 33.9143 17.2742 33.5993 17.5193C33.2843 17.7644 32.9236 17.9441 32.5383 18.048C32.153 18.1518 31.7508 18.1777 31.3553 18.1241C29.6748 17.929 27.9721 18.0916 26.3589 18.6013C24.7457 19.1109 23.2586 19.9561 21.9952 21.0813C20.7318 22.2065 19.7208 23.5862 19.0285 25.1299C18.3362 26.6735 17.9783 28.3462 17.9783 30.0379Z" fill="white"/>
</svg>
