<svg width="60" height="60" viewBox="0 0 60 60" fill="none" xmlns="http://www.w3.org/2000/svg">
<path d="M5.98397 30.0383C5.98808 33.4683 6.72775 36.8576 8.15311 39.9775C9.57846 43.0974 11.6563 45.8753 14.2466 48.1239C16.8368 50.3724 19.8791 52.0393 23.1684 53.0121C26.4576 53.9849 29.9172 54.241 33.3138 53.7631C36.7104 53.2851 39.965 52.0843 42.858 50.2416C45.7511 48.3989 48.2153 45.9572 50.0845 43.0812C51.9536 40.2051 53.1843 36.9617 53.6933 33.5696C54.2024 30.1775 53.9781 26.7157 53.0355 23.4177C52.9031 23.0324 52.8506 22.6242 52.881 22.2179C52.9115 21.8117 53.0243 21.4159 53.2126 21.0546C53.401 20.6933 53.6608 20.3742 53.9764 20.1165C54.292 19.8589 54.6567 19.6682 55.0484 19.556C55.4401 19.4439 55.8504 19.4126 56.2546 19.4641C56.6587 19.5156 57.0481 19.6488 57.3991 19.8556C57.7502 20.0624 58.0554 20.3384 58.2963 20.667C58.5372 20.9955 58.7088 21.3696 58.8005 21.7666C60.6256 28.1534 60.2789 34.9653 57.8148 41.1338C55.3506 47.3023 50.9085 52.4783 45.1852 55.8497C39.4619 59.2211 32.7814 60.5971 26.1916 59.762C19.6019 58.9269 13.4758 55.9278 8.77451 51.2352C4.07833 46.5351 1.07603 40.4084 0.238975 33.8172C-0.598075 27.2259 0.77753 20.5433 4.14981 14.8185C7.5221 9.0937 12.7001 4.65094 18.8708 2.18774C25.0416 -0.275468 31.8556 -0.619631 38.2432 1.20928C39.0037 1.43162 39.6454 1.94597 40.0279 2.63995C40.4104 3.33392 40.5026 4.15109 40.2844 4.91286C40.0662 5.67463 39.5554 6.31907 38.8635 6.70534C38.1716 7.09161 37.355 7.1883 36.592 6.97428C33.0202 5.94861 29.2589 5.76686 25.6048 6.44336C21.9506 7.11986 18.5037 8.63612 15.5358 10.8725C12.5678 13.1089 10.1601 16.0043 8.50249 19.3304C6.84487 22.6564 5.9827 26.3221 5.98397 30.0383Z" fill="white"/>
</svg>
