<svg width="18" height="17" viewBox="0 0 18 17" fill="none" xmlns="http://www.w3.org/2000/svg">
<path d="M3.62 7.14955C5.06 9.74689 7.38 11.867 10.21 13.1978L12.41 11.1786C12.68 10.9308 13.08 10.8482 13.43 10.9584C14.55 11.2979 15.76 11.4815 17 11.4815C17.55 11.4815 18 11.8945 18 12.3993V15.6024C18 16.1071 17.55 16.5201 17 16.5201C7.61 16.5201 0 9.5358 0 0.917786C0 0.413004 0.45 0 1 0H4.5C5.05 0 5.5 0.413004 5.5 0.917786C5.5 2.06502 5.7 3.16636 6.07 4.19428C6.18 4.51551 6.1 4.87344 5.82 5.13042L3.62 7.14955Z" fill="#F16100"/>
</svg>
