<svg width="60" height="60" viewBox="0 0 60 60" fill="none" xmlns="http://www.w3.org/2000/svg">
<path fill-rule="evenodd" clip-rule="evenodd" d="M8.13142 48.56C3.43285 43.4042 0.575714 36.5985 0.575714 29.1357C0.575714 13.0443 13.8571 0 30.24 0C46.6228 0 59.9042 13.0457 59.9042 29.1357C59.9042 40.5142 53.2614 50.3642 43.58 55.1614C37.4488 58.3516 30.6371 60.0116 23.7257 59.9999C14.9371 59.9999 6.77142 57.3728 0 52.8757C0 52.8757 4.54143 52.38 8.12856 48.5585L8.13142 48.56ZM44.1742 43.5571C51.85 35.8843 51.85 23.4428 44.1742 15.7671C40.761 12.3437 36.2015 10.3046 31.3743 10.0428C31.2343 6.54714 33.1157 4.18714 33.1243 4.17571V4.17428C27.5851 5.24139 22.4945 7.94845 18.5128 11.9443C15.4366 15.01 13.1117 18.746 11.72 22.86C11.9171 22.3362 12.1376 21.82 12.3814 21.3114C12.1024 22.0257 11.8486 22.7552 11.62 23.5C9.37285 30.3228 10.9586 38.1314 16.3843 43.5571C24.0585 51.2314 36.5 51.2314 44.1742 43.5571Z" fill="white"/>
<path fill-rule="evenodd" clip-rule="evenodd" d="M20.3047 27.6427V31.7098C20.3047 32.4892 20.6143 33.2366 21.1654 33.7877C21.7165 34.3388 22.4639 34.6484 23.2433 34.6484C24.0226 34.6484 24.7701 34.3388 25.3211 33.7877C25.8722 33.2366 26.1818 32.4892 26.1818 31.7098V27.6427C26.1818 26.8633 25.8722 26.1159 25.3211 25.5648C24.7701 25.0137 24.0226 24.7041 23.2433 24.7041C22.4639 24.7041 21.7165 25.0137 21.1654 25.5648C20.6143 26.1159 20.3047 26.8633 20.3047 27.6427ZM34.8518 27.6427V31.7098C34.8518 32.4892 35.1614 33.2366 35.7125 33.7877C36.2636 34.3388 37.011 34.6484 37.7904 34.6484C38.5697 34.6484 39.3172 34.3388 39.8683 33.7877C40.4194 33.2366 40.729 32.4892 40.729 31.7098V27.6427C40.729 26.8633 40.4194 26.1159 39.8683 25.5648C39.3172 25.0137 38.5697 24.7041 37.7904 24.7041C37.011 24.7041 36.2636 25.0137 35.7125 25.5648C35.1614 26.1159 34.8518 26.8633 34.8518 27.6427Z" fill="white"/>
</svg>
