<svg width="60" height="60" viewBox="0 0 60 60" fill="none" xmlns="http://www.w3.org/2000/svg">
<path fill-rule="evenodd" clip-rule="evenodd" d="M8.13142 48.56C3.43285 43.4042 0.575714 36.5985 0.575714 29.1357C0.575714 13.0443 13.8571 0 30.24 0C46.6228 0 59.9042 13.0457 59.9042 29.1357C59.9042 40.5142 53.2614 50.3642 43.58 55.1614C37.4488 58.3516 30.6371 60.0116 23.7257 59.9999C14.9371 59.9999 6.77142 57.3728 0 52.8757C0 52.8757 4.54143 52.38 8.12856 48.5585L8.13142 48.56ZM44.1742 43.5571C51.85 35.8843 51.85 23.4428 44.1742 15.7671C40.761 12.3437 36.2015 10.3046 31.3743 10.0428C31.2343 6.54714 33.1157 4.18714 33.1243 4.17571V4.17428C27.5851 5.24139 22.4945 7.94845 18.5128 11.9443C15.4366 15.01 13.1117 18.746 11.72 22.86C11.9171 22.3362 12.1376 21.82 12.3814 21.3114C12.1024 22.0257 11.8486 22.7552 11.62 23.5C9.37285 30.3228 10.9586 38.1314 16.3843 43.5571C24.0585 51.2314 36.5 51.2314 44.1742 43.5571Z" fill="white"/>
</svg>
