<svg width="66" height="66" viewBox="0 0 66 66" fill="none" xmlns="http://www.w3.org/2000/svg">
<path d="M41.5714 63H58.7143C59.8509 63 60.941 62.5485 61.7447 61.7447C62.5485 60.941 63 59.8509 63 58.7143V7.28571C63 6.14907 62.5485 5.05898 61.7447 4.25526C60.941 3.45153 59.8509 3 58.7143 3H41.5714C40.4348 3 39.3447 3.45153 38.541 4.25526C37.7372 5.05898 37.2857 6.14907 37.2857 7.28571V58.7143C37.2857 59.8509 37.7372 60.941 38.541 61.7447C39.3447 62.5485 40.4348 63 41.5714 63ZM41.5714 63H18M28.7143 50.1429V63M37.2857 24.4286H63M43.7143 50.1429H56.5714M7.28571 15.8571H37.2857V50.1429H7.28571C6.14907 50.1429 5.05898 49.6913 4.25526 48.8876C3.45153 48.0839 3 46.9938 3 45.8571V20.1429C3 19.0062 3.45153 17.9161 4.25526 17.1124C5.05898 16.3087 6.14907 15.8571 7.28571 15.8571Z" stroke="#F16100" stroke-width="5"/>
</svg>
