<svg width="54" height="60" viewBox="0 0 54 60" fill="none" xmlns="http://www.w3.org/2000/svg">
<path d="M37.5006 37.5C37.5006 43.5 30.0005 48 30.0005 52.5H24.0004C24.0004 48 16.5003 43.5 16.5003 37.5C16.5003 31.71 21.2104 27 27.0005 27C32.7906 27 37.5006 31.71 37.5006 37.5ZM30.0005 55.5H24.0004V60H30.0005V55.5ZM48.0008 36C48.0008 41.04 46.2308 45.63 43.2607 49.26L47.5208 53.52C49.8268 50.8277 51.5788 47.7067 52.6763 44.336C53.7738 40.9654 54.1953 37.4112 53.9166 33.8773C53.6379 30.3434 52.6645 26.8993 51.0522 23.7423C49.4398 20.5853 47.2203 17.7776 44.5208 15.48L40.2607 19.74C42.6759 21.7067 44.6235 24.186 45.9622 26.9982C47.3009 29.8105 47.9972 32.8854 48.0008 36ZM39.0007 12L27.0005 0V9C19.8395 9 12.9718 11.8446 7.90825 16.9081C2.84468 21.9716 0 28.8392 0 36C0 42.69 2.46004 48.81 6.48011 53.52L10.7402 49.26C7.66797 45.5247 5.99203 40.8364 6.0001 36C6.0001 24.42 15.4203 15 27.0005 15V24L39.0007 12Z" fill="#F16100"/>
</svg>
