<svg width="82" height="68" viewBox="0 0 82 68" fill="none" xmlns="http://www.w3.org/2000/svg">
<path d="M3.375 5.0625C3.375 4.61495 3.55279 4.18572 3.86926 3.86926C4.18572 3.55279 4.61495 3.375 5.0625 3.375H39.9398C40.3873 3.375 40.8165 3.55279 41.133 3.86926C41.4495 4.18572 41.6273 4.61495 41.6273 5.0625V24.7792L45.0023 27.2452V5.0625C45.0023 3.71984 44.4689 2.43218 43.5195 1.48277C42.5701 0.533369 41.2824 0 39.9398 0H5.0625C3.71984 0 2.43217 0.533369 1.48277 1.48277C0.533369 2.43218 0 3.71984 0 5.0625V28.6875C0 30.0302 0.533369 31.3178 1.48277 32.2672C2.43217 33.2166 3.71984 33.75 5.0625 33.75H26.2215L25.857 30.375H5.0625C4.61495 30.375 4.18572 30.1972 3.86926 29.8807C3.55279 29.5643 3.375 29.1351 3.375 28.6875V5.0625Z" fill="#F16100"/>
<path d="M37.5752 21.6312H37.3209L34.8257 19.8087L34.1912 16.7802C34.1822 16.7532 34.1687 16.7397 34.1507 16.7397C34.1327 16.7397 34.1192 16.7532 34.1102 16.7802L33.7052 18.9897L33.1022 18.5509C32.1039 17.8209 30.873 17.4816 29.6417 17.5969L28.3434 13.2072L26.8719 18.7512C25.9832 19.4937 25.3802 20.5107 25.1529 21.6312H23.7602C23.6342 21.6312 23.5577 21.5727 23.5307 21.4557L22.5519 16.7802C22.5429 16.7532 22.5294 16.7397 22.5114 16.7397C22.4934 16.7397 22.4792 16.7532 22.4687 16.7802L21.6137 21.4422C21.5867 21.5682 21.5139 21.6312 21.3954 21.6312H19.3704C19.3182 21.6312 19.2669 21.6172 19.2219 21.5907C19.1795 21.5569 19.1508 21.509 19.1409 21.4557L16.7019 13.2072L14.5104 21.4557C14.4834 21.5727 14.4114 21.6312 14.2944 21.6312H12.1187C11.9927 21.6312 11.9162 21.5727 11.8892 21.4557L10.9104 16.7802C10.9014 16.7532 10.8879 16.7397 10.8699 16.7397C10.8519 16.7397 10.8384 16.7532 10.8294 16.7802L9.97442 21.4422C9.94592 21.5682 9.87242 21.6312 9.75392 21.6312H7.72892C7.67669 21.6312 7.62542 21.6172 7.58042 21.5907C7.53805 21.5569 7.50928 21.509 7.49942 21.4557L4.80842 12.3499C4.80049 12.3282 4.79593 12.3055 4.79492 12.2824C4.79492 12.1729 4.85792 12.1182 4.98392 12.1182H7.29467C7.41467 12.1182 7.48742 12.1774 7.51292 12.2959L8.66717 16.7262C8.67617 16.7532 8.68967 16.7712 8.70767 16.7802C8.72567 16.7802 8.73917 16.7622 8.74817 16.7262L9.65942 12.2937C9.68642 12.1767 9.76367 12.1182 9.89117 12.1182H11.8757C11.9927 12.1182 12.0647 12.1774 12.0917 12.2959L13.1109 16.7262C13.1199 16.7622 13.1334 16.7802 13.1514 16.7802C13.1709 16.7802 13.1852 16.7622 13.1942 16.7262L14.2134 12.2937C14.2404 12.1767 14.3124 12.1182 14.4294 12.1182H18.9362C19.0547 12.1182 19.1274 12.1774 19.1544 12.2959L20.3087 16.7262C20.3177 16.7532 20.3312 16.7712 20.3492 16.7802C20.3672 16.7802 20.3807 16.7622 20.3897 16.7262L21.3009 12.2937C21.3279 12.1767 21.4052 12.1182 21.5327 12.1182H23.5149C23.6349 12.1182 23.7077 12.1774 23.7332 12.2959L24.7524 16.7262C24.7614 16.7622 24.7749 16.7802 24.7929 16.7802C24.8109 16.7802 24.8244 16.7622 24.8334 16.7262L25.8527 12.2937C25.8812 12.1767 25.9539 12.1182 26.0709 12.1182H30.5777C30.6947 12.1182 30.7674 12.1774 30.7959 12.2959L31.9502 16.7262C31.9592 16.7532 31.9727 16.7712 31.9907 16.7802C32.0087 16.7802 32.0222 16.7622 32.0312 16.7262L32.9424 12.2937C32.9694 12.1767 33.0467 12.1182 33.1742 12.1182H35.1564C35.2764 12.1182 35.3492 12.1774 35.3747 12.2959L36.3939 16.7262C36.4029 16.7622 36.4164 16.7802 36.4344 16.7802C36.4524 16.7802 36.4659 16.7622 36.4749 16.7262L37.4942 12.2937C37.5212 12.1767 37.5939 12.1182 37.7124 12.1182H40.0367C40.1087 12.1182 40.1582 12.1407 40.1852 12.1857C40.2212 12.2217 40.2302 12.2764 40.2122 12.3499L37.7934 21.4557C37.7664 21.5727 37.6922 21.6312 37.5752 21.6312Z" fill="#F16100"/>
<path fill-rule="evenodd" clip-rule="evenodd" d="M29.2655 21.3634C29.5486 21.2001 29.873 21.1226 30.1993 21.1401C30.5256 21.1577 30.8398 21.2697 31.1037 21.4624L42.0297 29.4454C42.2959 29.6399 42.4992 29.908 42.6147 30.2168C42.7301 30.5255 42.7526 30.8613 42.6794 31.1827C42.6061 31.5041 42.4404 31.797 42.2026 32.0253C41.9648 32.2535 41.6653 32.4071 41.3412 32.4671L37.9842 33.0904L39.7865 36.2134C40.0067 36.6008 40.0648 37.0595 39.9481 37.4896C39.8313 37.9196 39.5492 38.286 39.1633 38.5088C38.7774 38.7317 38.319 38.7928 37.8882 38.6789C37.4574 38.565 37.0891 38.2853 36.8637 37.9009L35.0592 34.7756L32.8407 37.3744C32.6266 37.6251 32.3438 37.8075 32.0271 37.8993C31.7105 37.991 31.3739 37.988 31.059 37.8906C30.744 37.7932 30.4645 37.6056 30.255 37.3512C30.0454 37.0967 29.9149 36.7864 29.8797 36.4586L28.4307 23.0059C28.3955 22.6809 28.4554 22.3527 28.6032 22.0611C28.751 21.7695 28.9803 21.5271 29.2632 21.3634M32.8137 32.2084L33.266 31.6774C34.0191 30.7967 35.0516 30.201 36.191 29.9899L36.8772 29.8616L32.1927 26.4416L32.8137 32.2084Z" fill="#F16100"/>
<path d="M67.7083 37.6671C69.4102 37.6671 71.0424 36.9911 72.2458 35.7876M67.7083 37.6671C66.0065 37.6671 64.3743 36.9911 63.1709 35.7876M67.7083 37.6671V42.4793M72.2458 35.7876C73.4492 34.5842 74.1253 32.952 74.1253 31.2502M72.2458 35.7876L75.6484 39.1902M74.1253 31.2502C74.1253 29.5483 73.4492 27.9161 72.2458 26.7127M74.1253 31.2502H78.9375M72.2458 26.7127C71.0424 25.5093 69.4102 24.8332 67.7083 24.8332M72.2458 26.7127L75.6484 23.3101M67.7083 24.8332C66.0065 24.8332 64.3743 25.5093 63.1709 26.7127M67.7083 24.8332V20.021M63.1709 26.7127C61.9674 27.9161 61.2914 29.5483 61.2914 31.2502M63.1709 26.7127L59.7683 23.3101M61.2914 31.2502C61.2914 32.952 61.9674 34.5842 63.1709 35.7876M61.2914 31.2502H56.4792M63.1709 35.7876L59.7683 39.1902M66.6385 20.021H68.7782M74.893 22.5547L76.4038 24.0655M78.9375 30.1803V32.32M76.4038 38.4348L74.893 39.9456M68.7782 42.4793H66.6385M60.5237 39.9456L59.0129 38.4348M56.4792 32.32V30.1803M59.0129 24.0655L60.5237 22.5547M46.7813 48.0939L50.197 45.5316C50.5456 45.2705 50.9438 45.0832 51.3673 44.9811C51.7907 44.879 52.2305 44.8643 52.6598 44.9378C53.0892 45.0114 53.499 45.1717 53.8643 45.4089C54.2296 45.6462 54.5428 45.9554 54.7846 46.3177C55.1349 46.8438 55.3217 47.4618 55.3217 48.0939C55.3217 48.726 55.1349 49.344 54.7846 49.8702L51.426 54.907C50.394 56.454 48.9168 57.6515 47.1896 58.341L42.1875 60.3439M48.3125 37.3752L40.9727 40.5214C38.8041 41.4502 37.076 43.1777 36.1462 45.3458L33.7432 50.9522C33.2526 52.0967 32.9997 53.329 33 54.5742V64.9377" stroke="#F16100" stroke-width="4.5" stroke-linecap="round" stroke-linejoin="round"/>
<path d="M78.9375 46.5625V60.3438C78.9375 61.5621 78.4535 62.7305 77.592 63.592C76.7305 64.4535 75.5621 64.9375 74.3438 64.9375H52.9063C51.6879 64.9375 50.5195 64.4535 49.658 63.592C48.7965 62.7305 48.3125 61.5621 48.3125 60.3438V57.8019M48.3125 46.9443V23.5938C48.3125 22.3754 48.7965 21.207 49.658 20.3455C50.5195 19.484 51.6879 19 52.9063 19H56.4792" stroke="#F16100" stroke-width="4.5" stroke-linecap="round" stroke-linejoin="round"/>
</svg>
