<svg width="60" height="60" viewBox="0 0 60 60" fill="none" xmlns="http://www.w3.org/2000/svg">
<path d="M26.2499 41.1975C26.2499 42.1921 26.645 43.1459 27.3482 43.8492C28.0515 44.5524 29.0053 44.9475 29.9999 44.9475C30.9944 44.9475 31.9483 44.5524 32.6515 43.8492C33.3548 43.1459 33.7499 42.1921 33.7499 41.1975V14.355L45.9111 26.5163L51.2136 21.2137L29.9999 0L8.78613 21.2137L14.0886 26.5163L26.2499 14.3625V41.1975Z" fill="#F16100"/>
<path d="M0 37.5H7.5V52.5H52.5V37.5H60V52.5C60 54.4891 59.2098 56.3968 57.8033 57.8033C56.3968 59.2098 54.4891 60 52.5 60H7.5C5.51088 60 3.60322 59.2098 2.1967 57.8033C0.790176 56.3968 0 54.4891 0 52.5V37.5Z" fill="#F16100"/>
</svg>
