<svg width="98" height="51" viewBox="0 0 98 51" fill="none" xmlns="http://www.w3.org/2000/svg">
<path d="M89.8513 23.5127V15.4795H85.8284V23.5127H77.6993V27.5071H85.8284V35.5402H89.8513V27.5071H98V23.5127H89.8513ZM68.2717 17.9846C69.3189 18.0018 70.3463 18.2747 71.2655 18.7798C72.1847 19.2849 72.9684 20.0071 73.549 20.8843L73.8381 21.2886H78.5813L77.8659 19.8635C76.9802 18.0556 75.6157 16.5289 73.9228 15.4517C72.2299 14.3745 70.2744 13.7885 68.2717 13.7585C65.2788 13.8653 62.4492 15.1584 60.3996 17.356C58.35 19.5535 57.2467 22.4774 57.33 25.4901C57.2428 28.5096 58.3477 31.4408 60.403 33.6423C62.4582 35.8438 65.2963 37.1362 68.2962 37.2366C70.3023 37.2052 72.2606 36.616 73.9547 35.5342C75.6488 34.4524 77.0126 32.9202 77.8953 31.1069L78.6058 29.6769H73.8626L73.5735 30.0812C72.9929 30.9584 72.2092 31.6806 71.29 32.1857C70.3707 32.6908 69.3434 32.9636 68.2962 32.9809C66.4211 32.8713 64.6649 32.0205 63.4103 30.6138C62.1557 29.207 61.5043 27.3584 61.5979 25.4704C61.5818 23.4018 62.3737 21.4095 63.8029 19.9226C64.979 18.7069 66.586 18.01 68.2717 17.9846ZM85.7892 46.9316H4.0817V4.06836H85.7892V11.2435H89.8709V0H0V51H89.8709V39.7763H85.7892V46.9316ZM24.99 22.8223C23.6229 22.8765 22.05 22.8765 21.8442 22.8765C18.5436 22.7129 15.2896 23.7121 12.642 25.7022C11.935 26.3542 11.3751 27.151 10.9998 28.0391C10.6245 28.9271 10.4426 29.8858 10.4664 30.8505C10.4234 31.8603 10.6448 32.8637 11.1083 33.7603C11.5718 34.6569 12.2612 35.4152 13.1075 35.9594C14.6994 36.885 16.518 37.3413 18.3554 37.2761C20.4276 37.268 22.4812 36.8821 24.4167 36.1369C25.0329 35.8725 25.6305 35.5661 26.2052 35.2197L26.2346 36.7484H30.4486V24.277C30.4486 23.4584 30.4143 22.339 30.3751 21.8114C30.1938 18.7736 28.6503 13.6845 20.3399 13.6845C18.2987 13.5181 16.2635 14.0717 14.5836 15.2505C12.9036 16.4292 11.6836 18.1595 11.1328 20.1446L10.682 22.0333H15.0185L15.3419 20.9286C15.484 20.4355 16.4052 17.9255 20.3595 17.9255C24.3138 17.9255 25.9651 19.1238 26.1513 22.0776C26.1448 22.2881 26.1546 22.5182 26.1807 22.768H25.0096L24.99 22.8223ZM15.5673 28.7892C17.4247 27.5779 19.6141 26.9861 21.8246 27.0978H22.2117L26.2395 27.0337C26.246 27.8818 26.2346 28.7876 26.2052 29.7508V29.8396C25.2271 30.8523 24.062 31.663 22.7752 32.2264C20.4238 33.1643 17.8164 33.2238 15.4252 32.394C15.1741 32.2296 14.9734 31.9982 14.8453 31.7257C14.7173 31.4531 14.667 31.1501 14.7 30.8505C14.6803 30.4633 14.7481 30.0766 14.8984 29.7196C15.0486 29.3626 15.2773 29.0445 15.5673 28.7892ZM56.301 36.7879V14.2319H51.7489L44.296 30.4363L36.8235 14.2319H32.291V36.7879H36.5197V23.7346L42.5271 36.7879H46.0306L52.0331 23.7346V36.7879H56.301Z" fill="#F16100"/>
</svg>
