<svg width="66" height="66" viewBox="0 0 66 66" fill="none" xmlns="http://www.w3.org/2000/svg">
<path d="M63.0003 51.3332C63.0003 54.4274 61.7712 57.3948 59.5832 59.5828C57.3953 61.7707 54.4279 62.9998 51.3337 62.9998C48.2395 62.9998 45.272 61.7707 43.0841 59.5828C40.8962 57.3948 39.667 54.4274 39.667 51.3332C39.667 48.239 40.8962 45.2715 43.0841 43.0836C45.272 40.8957 48.2395 39.6665 51.3337 39.6665C54.4279 39.6665 57.3953 40.8957 59.5832 43.0836C61.7712 45.2715 63.0003 48.239 63.0003 51.3332Z" stroke="#F16100" stroke-width="5" stroke-linecap="round" stroke-linejoin="round"/>
<path d="M51.3333 39.6667H14.6667C11.5725 39.6667 8.60501 40.8958 6.41709 43.0838C4.22916 45.2717 3 48.2391 3 51.3333C3 54.4275 4.22916 57.395 6.41709 59.5829C8.60501 61.7708 11.5725 63 14.6667 63H51.3333C54.4275 63 57.395 61.7708 59.5829 59.5829C61.7708 57.395 63 54.4275 63 51.3333C63 48.2391 61.7708 45.2717 59.5829 43.0838C57.395 40.8958 54.4275 39.6667 51.3333 39.6667ZM3 14.6667C3 16.1988 3.30177 17.7158 3.88807 19.1313C4.47438 20.5468 5.33374 21.8329 6.41709 22.9162C7.50044 23.9996 8.78656 24.859 10.202 25.4453C11.6175 26.0316 13.1346 26.3333 14.6667 26.3333C16.1988 26.3333 17.7158 26.0316 19.1313 25.4453C20.5468 24.859 21.8329 23.9996 22.9162 22.9162C23.9996 21.8329 24.859 20.5468 25.4453 19.1313C26.0316 17.7158 26.3333 16.1988 26.3333 14.6667C26.3333 11.5725 25.1042 8.60501 22.9162 6.41709C20.7283 4.22916 17.7609 3 14.6667 3C11.5725 3 8.60501 4.22916 6.41709 6.41709C4.22916 8.60501 3 11.5725 3 14.6667Z" stroke="#F16100" stroke-width="5" stroke-linecap="round" stroke-linejoin="round"/>
<path d="M14.6667 3H51.3333C52.8654 3 54.3825 3.30177 55.798 3.88807C57.2134 4.47438 58.4996 5.33374 59.5829 6.41709C60.6663 7.50044 61.5256 8.78656 62.1119 10.202C62.6982 11.6175 63 13.1346 63 14.6667C63 16.1988 62.6982 17.7158 62.1119 19.1313C61.5256 20.5468 60.6663 21.8329 59.5829 22.9162C58.4996 23.9996 57.2134 24.859 55.798 25.4453C54.3825 26.0316 52.8654 26.3333 51.3333 26.3333H14.6667C13.1346 26.3333 11.6175 26.0316 10.202 25.4453C8.78656 24.859 7.50044 23.9996 6.41709 22.9162C5.33374 21.8329 4.47438 20.5468 3.88807 19.1313C3.30177 17.7158 3 16.1988 3 14.6667C3 13.1346 3.30177 11.6175 3.88807 10.202C4.47438 8.78656 5.33374 7.50044 6.41709 6.41709C7.50044 5.33374 8.78656 4.47438 10.202 3.88807C11.6175 3.30177 13.1346 3 14.6667 3Z" stroke="#F16100" stroke-width="5" stroke-linecap="round" stroke-linejoin="round"/>
</svg>
