<svg width="22" height="18" viewBox="0 0 22 18" fill="none" xmlns="http://www.w3.org/2000/svg">
<path d="M21.223 4.9725L21.4705 6.075C21.508 6.24225 21.508 6.408 21.4765 6.564C21.4915 6.624 21.4993 6.686 21.4998 6.75C21.4998 6.94891 21.4207 7.13968 21.2801 7.28033C21.1394 7.42098 20.9487 7.5 20.7498 7.5H19.0585L17.9462 6.01725V6.01575C17.7684 5.77745 17.5373 5.58408 17.2714 5.45111C17.0054 5.31814 16.7121 5.24927 16.4147 5.25H16.2498V3.9825C16.2498 3.441 15.8088 3 15.2673 3H14.2323C13.6908 3 13.2498 3.441 13.2498 3.9825V5.2425H8.74975V3.9825C8.74975 3.441 8.30875 3 7.76725 3H6.73225C6.19075 3 5.74975 3.441 5.74975 3.9825V5.25H5.58475C4.97875 5.25 4.4125 5.53575 4.04725 6.0225L2.94025 7.5H1.24975C1.1354 7.50003 1.02256 7.47391 0.919857 7.42364C0.817152 7.37337 0.727301 7.30028 0.657173 7.20996C0.587046 7.11964 0.538499 7.01448 0.515244 6.90253C0.491989 6.79057 0.494642 6.67478 0.523001 6.564C0.48912 6.40253 0.491168 6.23559 0.529001 6.075L0.769001 4.9725C1.03649 3.77532 1.70362 2.70489 2.66058 1.93741C3.61755 1.16993 4.8073 0.751149 6.034 0.75H15.9655C17.1916 0.750119 18.381 1.16867 19.337 1.93646C20.293 2.70424 20.9583 3.77528 21.223 4.9725Z" fill="white"/>
<path d="M17.345 6.465L20.09 10.125C21.0052 11.3425 21.5 12.8244 21.5 14.3475V16.83C21.5 17.475 20.975 18 20.33 18H1.67C1.025 18 0.5 17.475 0.5 16.83V14.3475C0.5 12.825 0.995 11.34 1.91 10.125L4.6475 6.4725C4.8725 6.1725 5.2175 6 5.585 6H6.2675C6.395 6 6.5 5.895 6.5 5.7675V3.9825C6.5 3.855 6.605 3.75 6.7325 3.75H7.7675C7.895 3.75 8 3.855 8 3.9825V5.7675C8 5.895 8.105 6 8.2325 6H13.7675C13.895 6 14 5.895 14 5.7675V3.9825C14 3.855 14.105 3.75 14.2325 3.75H15.2675C15.395 3.75 15.5 3.855 15.5 3.9825V5.7675C15.5 5.895 15.605 6 15.7325 6H16.415C16.7825 6 17.1275 6.1725 17.345 6.465ZM9.2735 9.75C9.401 9.75 9.50675 9.645 9.49925 9.516V8.484C9.49905 8.42213 9.47444 8.36284 9.43076 8.31902C9.38708 8.2752 9.32787 8.25039 9.266 8.25H8.234C8.172 8.2502 8.1126 8.27492 8.06876 8.31876C8.02491 8.3626 8.0002 8.422 8 8.484V9.516C8 9.64425 8.105 9.75 8.2415 9.75H9.2735ZM11.5235 9.75C11.5539 9.75023 11.5841 9.74427 11.6122 9.7325C11.6403 9.72072 11.6657 9.70337 11.6868 9.68149C11.708 9.65962 11.7245 9.63367 11.7354 9.60522C11.7463 9.57678 11.7512 9.54642 11.75 9.516V8.484C11.7496 8.42206 11.7248 8.36277 11.681 8.31897C11.6372 8.27517 11.5779 8.25039 11.516 8.25H10.484C10.422 8.2502 10.3626 8.27492 10.3188 8.31876C10.2749 8.3626 10.2502 8.422 10.25 8.484V9.516C10.25 9.64425 10.355 9.75 10.4915 9.75H11.5235ZM12.7415 9.75H13.7735C13.8039 9.75023 13.8341 9.74427 13.8622 9.7325C13.8903 9.72072 13.9157 9.70337 13.9368 9.68149C13.958 9.65962 13.9745 9.63367 13.9854 9.60522C13.9963 9.57678 14.0012 9.54642 14 9.516V8.484C13.9996 8.42206 13.9748 8.36277 13.931 8.31897C13.8872 8.27517 13.8279 8.25039 13.766 8.25H12.734C12.672 8.2502 12.6126 8.27492 12.5688 8.31876C12.5249 8.3626 12.5002 8.422 12.5 8.484V9.516C12.5 9.64425 12.605 9.75 12.7415 9.75ZM9.2735 12C9.401 12 9.50675 11.895 9.49925 11.766V10.734C9.49905 10.6721 9.47444 10.6128 9.43076 10.569C9.38708 10.5252 9.32787 10.5004 9.266 10.5H8.234C8.172 10.5002 8.1126 10.5249 8.06876 10.5688C8.02491 10.6126 8.0002 10.672 8 10.734V11.766C8 11.8942 8.105 12 8.2415 12H9.2735ZM10.4915 12H11.5235C11.5539 12.0002 11.5841 11.9943 11.6122 11.9825C11.6403 11.9707 11.6657 11.9534 11.6868 11.9315C11.708 11.9096 11.7245 11.8837 11.7354 11.8552C11.7463 11.8268 11.7512 11.7964 11.75 11.766V10.734C11.7496 10.6721 11.7248 10.6128 11.681 10.569C11.6372 10.5252 11.5779 10.5004 11.516 10.5H10.484C10.422 10.5002 10.3626 10.5249 10.3188 10.5688C10.2749 10.6126 10.2502 10.672 10.25 10.734V11.766C10.25 11.8942 10.355 12 10.4915 12ZM13.7735 12C13.8039 12.0002 13.8341 11.9943 13.8622 11.9825C13.8903 11.9707 13.9157 11.9534 13.9368 11.9315C13.958 11.9096 13.9745 11.8837 13.9854 11.8552C13.9963 11.8268 14.0012 11.7964 14 11.766V10.734C13.9996 10.6721 13.9748 10.6128 13.931 10.569C13.8872 10.5252 13.8279 10.5004 13.766 10.5H12.734C12.672 10.5002 12.6126 10.5249 12.5688 10.5688C12.5249 10.6126 12.5002 10.672 12.5 10.734V11.766C12.5 11.8942 12.605 12 12.7415 12H13.7735ZM8.2415 14.25H9.2735C9.401 14.25 9.50675 14.145 9.49925 14.016V12.984C9.49905 12.9221 9.47444 12.8628 9.43076 12.819C9.38708 12.7752 9.32787 12.7504 9.266 12.75H8.234C8.172 12.7502 8.1126 12.7749 8.06876 12.8188C8.02491 12.8626 8.0002 12.922 8 12.984V14.016C8 14.1442 8.105 14.25 8.2415 14.25ZM11.5235 14.25C11.5539 14.2502 11.5841 14.2443 11.6122 14.2325C11.6403 14.2207 11.6657 14.2034 11.6868 14.1815C11.708 14.1596 11.7245 14.1337 11.7354 14.1052C11.7463 14.0768 11.7512 14.0464 11.75 14.016V12.984C11.7496 12.9221 11.7248 12.8628 11.681 12.819C11.6372 12.7752 11.5779 12.7504 11.516 12.75H10.484C10.422 12.7502 10.3626 12.7749 10.3188 12.8188C10.2749 12.8626 10.2502 12.922 10.25 12.984V14.016C10.25 14.1442 10.355 14.25 10.4915 14.25H11.5235ZM12.7415 14.25H13.7735C13.8039 14.2502 13.8341 14.2443 13.8622 14.2325C13.8903 14.2207 13.9157 14.2034 13.9368 14.1815C13.958 14.1596 13.9745 14.1337 13.9854 14.1052C13.9963 14.0768 14.0012 14.0464 14 14.016V12.984C13.9996 12.9221 13.9748 12.8628 13.931 12.819C13.8872 12.7752 13.8279 12.7504 13.766 12.75H12.734C12.672 12.7502 12.6126 12.7749 12.5688 12.8188C12.5249 12.8626 12.5002 12.922 12.5 12.984V14.016C12.5 14.1442 12.605 14.25 12.7415 14.25Z" fill="white"/>
</svg>
