<svg width="65" height="60" viewBox="0 0 65 60" fill="none" xmlns="http://www.w3.org/2000/svg">
<path d="M27.857 38.5714H14.9999C13.2949 38.5714 11.6598 39.2487 10.4542 40.4542C9.24858 41.6598 8.57129 43.295 8.57129 44.9999V49.2856H12.857V44.9999C12.857 44.4316 13.0828 43.8866 13.4846 43.4847C13.8865 43.0828 14.4315 42.8571 14.9999 42.8571H27.857C28.4253 42.8571 28.9704 43.0828 29.3722 43.4847C29.7741 43.8866 29.9999 44.4316 29.9999 44.9999V49.2856H34.2856V44.9999C34.2856 43.295 33.6083 41.6598 32.4027 40.4542C31.1971 39.2487 29.562 38.5714 27.857 38.5714ZM21.4284 36.4285C23.1237 36.4285 24.7809 35.9258 26.1905 34.984C27.6 34.0421 28.6986 32.7034 29.3474 31.1372C29.9962 29.571 30.1659 27.8476 29.8352 26.1849C29.5044 24.5222 28.6881 22.9949 27.4893 21.7962C26.2906 20.5974 24.7633 19.7811 23.1006 19.4503C21.4379 19.1196 19.7145 19.2894 18.1483 19.9381C16.5821 20.5869 15.2434 21.6855 14.3015 23.095C13.3597 24.5046 12.857 26.1618 12.857 27.8571C12.857 30.1304 13.7601 32.3105 15.3675 33.918C16.975 35.5254 19.1551 36.4285 21.4284 36.4285ZM21.4284 23.5714C22.2761 23.5714 23.1047 23.8227 23.8094 24.2936C24.5142 24.7646 25.0635 25.4339 25.3879 26.217C25.7123 27.0001 25.7972 27.8618 25.6318 28.6932C25.4664 29.5245 25.0583 30.2882 24.4589 30.8875C23.8595 31.4869 23.0959 31.8951 22.2645 32.0604C21.4332 32.2258 20.5715 32.1409 19.7884 31.8166C19.0052 31.4922 18.3359 30.9429 17.865 30.2381C17.3941 29.5333 17.1427 28.7047 17.1427 27.8571C17.1427 26.7204 17.5942 25.6303 18.398 24.8266C19.2017 24.0229 20.2918 23.5714 21.4284 23.5714Z" fill="#F16100"/>
<path d="M55.7143 36.4284V55.7141H4.28571V12.857H30V8.57129H4.28571C3.14907 8.57129 2.05898 9.02282 1.25526 9.82655C0.451529 10.6303 0 11.7204 0 12.857V55.7141C0 56.8508 0.451529 57.9409 1.25526 58.7446C2.05898 59.5483 3.14907 59.9999 4.28571 59.9999H55.7143C56.8509 59.9999 57.941 59.5483 58.7447 58.7446C59.5485 57.9409 60 56.8508 60 55.7141V36.4284H55.7143Z" fill="#F16100"/>
<path d="M38.5718 36.4286H51.429V40.7143H38.5718V36.4286ZM42.8576 45H51.429V49.2857H42.8576V45ZM64.2861 17.1429V12.8571H59.784C59.506 11.5163 58.9735 10.2411 58.2154 9.10071L61.4083 5.90786L58.3783 2.87786L55.1854 6.07071C54.045 5.31261 52.7699 4.78014 51.429 4.50214V0H47.1433V4.50214C45.8024 4.78014 44.5272 5.31261 43.3868 6.07071L40.194 2.87786L37.164 5.90786L40.3568 9.10071C39.5987 10.2411 39.0663 11.5163 38.7883 12.8571H34.2861V17.1429H38.7883C39.0663 18.4837 39.5987 19.7589 40.3568 20.8993L37.164 24.0921L40.194 27.1221L43.3868 23.9293C44.5272 24.6874 45.8024 25.2199 47.1433 25.4979V30H51.429V25.4979C52.7699 25.2199 54.045 24.6874 55.1854 23.9293L58.3783 27.1221L61.4083 24.0921L58.2154 20.8993C58.9735 19.7589 59.506 18.4837 59.784 17.1429H64.2861ZM49.2861 21.4286C48.0147 21.4286 46.7718 21.0515 45.7146 20.3452C44.6574 19.6388 43.8335 18.6348 43.3469 17.4601C42.8603 16.2854 42.733 14.9929 42.9811 13.7458C43.2291 12.4988 43.8414 11.3534 44.7404 10.4543C45.6395 9.55526 46.785 8.943 48.032 8.69495C49.279 8.4469 50.5716 8.57421 51.7462 9.06077C52.9209 9.54734 53.9249 10.3713 54.6313 11.4285C55.3377 12.4856 55.7147 13.7285 55.7147 15C55.713 16.7044 55.0352 18.3386 53.8299 19.5438C52.6247 20.749 50.9906 21.4269 49.2861 21.4286Z" fill="#F16100"/>
</svg>
