<svg width="59" height="60" viewBox="0 0 59 60" fill="none" xmlns="http://www.w3.org/2000/svg">
<path d="M37.5 56.775L24.75 44.025L28.95 39.825L37.5 48.375L54.45 31.425L58.65 35.625L37.5 56.775ZM54 27H48V12H42V21H12V12H6V54H24V60H6C4.35 60 2.938 59.413 1.764 58.239C0.59 57.065 0.002 55.652 0 54V12C0 10.35 0.588 8.938 1.764 7.764C2.94 6.59 4.352 6.002 6 6H18.525C19.075 4.25 20.15 2.813 21.75 1.689C23.35 0.565 25.1 0.002 27 0C29 0 30.788 0.563 32.364 1.689C33.94 2.815 35.002 4.252 35.55 6H48C49.65 6 51.063 6.588 52.239 7.764C53.415 8.94 54.002 10.352 54 12V27ZM27 12C27.85 12 28.563 11.712 29.139 11.136C29.715 10.56 30.002 9.848 30 9C29.998 8.152 29.71 7.44 29.136 6.864C28.562 6.288 27.85 6 27 6C26.15 6 25.438 6.288 24.864 6.864C24.29 7.44 24.002 8.152 24 9C23.998 9.848 24.286 10.561 24.864 11.139C25.442 11.717 26.154 12.004 27 12Z" fill="#F16100"/>
</svg>
