<svg width="46" height="60" viewBox="0 0 46 60" fill="none" xmlns="http://www.w3.org/2000/svg">
<path d="M17.5826 39.3531L17.5569 39.2932C17.1706 39.1875 16.7876 39.0704 16.4084 38.9417L16.3798 38.9303C12.4332 37.58 9.00754 35.0295 6.58242 31.6356C4.1573 28.2418 2.8541 24.1746 2.85524 20.0033C2.85397 14.8841 4.81594 9.95924 8.33704 6.24323C11.8581 2.52722 16.6702 0.303017 21.7821 0.0287457C26.8941 -0.245525 31.9165 1.45102 35.815 4.76895C39.7135 8.08687 42.1911 12.7735 42.7376 17.8635C42.8633 19.0406 41.892 20.0033 40.7092 20.0033C39.5265 20.0033 38.5808 19.0377 38.4237 17.8664C38.0437 15.1017 36.9344 12.488 35.2097 10.294C33.4851 8.09999 31.2073 6.40479 28.6106 5.38262C26.0138 4.36046 23.1917 4.04819 20.4343 4.47791C17.6768 4.90764 15.0836 6.06385 12.921 7.82773C10.7584 9.59161 9.1045 11.8995 8.12927 14.5143C7.15403 17.129 6.89264 19.9563 7.37195 22.7056C7.85127 25.4548 9.054 28.0268 10.8565 30.1573C12.6591 32.2878 14.9964 33.8998 17.6283 34.8278C18.1585 33.6294 19.0845 32.6497 20.2511 32.0528C21.4177 31.4559 22.7541 31.2782 24.0361 31.5494C25.3182 31.8207 26.4681 32.5243 27.293 33.5425C28.118 34.5607 28.5679 35.8315 28.5674 37.1419C28.5687 38.4626 28.1125 39.7429 27.2764 40.7652C26.4403 41.7874 25.2758 42.4885 23.9812 42.7491C22.6865 43.0097 21.3415 42.8138 20.1749 42.1947C19.0084 41.5756 18.0924 40.5714 17.5826 39.3531ZM14.6543 42.8671C11.2858 41.6573 8.22638 39.7179 5.69501 37.1876C4.12982 37.3697 2.68604 38.1203 1.63793 39.297C0.589827 40.4736 0.0104151 41.9942 0.00976562 43.5699V46.1983C0.00976562 47.8324 0.518294 49.4266 1.46679 50.7579C5.87213 56.9403 13.083 60 22.8536 60C32.6242 60 39.8379 56.9374 44.2518 50.7579C45.2047 49.4252 45.7171 47.828 45.7174 46.1897V43.5671C45.7174 41.8632 45.0409 40.2291 43.8367 39.0238C42.6324 37.8185 40.9989 37.1406 39.2951 37.139H32.8527C32.8532 39.267 32.1747 41.3396 30.9161 43.0555C29.6574 44.7713 27.8842 46.0408 25.8543 46.6794C23.8244 47.318 21.6437 47.2924 19.6294 46.6062C17.6151 45.9201 15.8722 44.6121 14.6543 42.8671ZM34.2812 20.0033C34.2812 18.3333 33.9152 16.6835 33.2088 15.1701C32.5025 13.6568 31.4731 12.3167 30.193 11.2441C29.0047 10.2501 27.6267 9.50804 26.1428 9.06311C24.6588 8.61817 23.0999 8.47961 21.5608 8.65584C20.0216 8.83207 18.5344 9.31942 17.1894 10.0883C15.8445 10.8571 14.6699 11.8914 13.7371 13.1282C12.8042 14.3651 12.1326 15.7787 11.763 17.2832C11.3935 18.7877 11.3337 20.3516 11.5873 21.8799C11.8409 23.4082 12.4026 24.869 13.2382 26.1735C14.0739 27.478 15.1661 28.599 16.4484 29.4683C18.2457 27.9681 20.5124 27.1461 22.8536 27.1456C25.2905 27.1456 27.5246 28.0169 29.2616 29.4683C30.8081 28.4209 32.0742 27.0105 32.9493 25.3605C33.8244 23.7104 34.2817 21.8711 34.2812 20.0033Z" fill="#F16100"/>
</svg>
