<svg width="78" height="82" viewBox="0 0 78 82" fill="none" xmlns="http://www.w3.org/2000/svg">
<g clip-path="url(#clip0_194_30)">
<path d="M36.885 0C36.885 4.08871 36.9003 8.00331 36.8542 11.9179C36.8504 12.2183 36.4679 12.6258 36.1566 12.7961C30.5389 15.888 24.9039 18.9512 19.2727 22.0201C17.2278 23.1336 15.1926 24.2644 13.1323 25.3531C12.6499 25.6095 12.4404 25.8945 12.4423 26.4551C12.4615 34.9903 12.4481 43.5256 12.4865 52.0608C12.4865 52.4358 12.8075 52.9466 13.1342 53.1628C20.6815 58.1737 28.2461 63.1617 35.826 68.1248C36.4852 68.5572 36.7504 69.0011 36.7389 69.8047C36.6889 73.4667 36.7178 77.1287 36.7178 80.7927C36.7178 81.1314 36.7178 81.47 36.7178 82.0019C34.9592 81.0127 33.3583 80.1211 31.7631 79.2162C21.4944 73.3883 11.2315 67.5508 0.953259 61.742C0.259456 61.3479 0 60.9289 0 60.1119C0.0288284 46.958 0.0230627 33.806 0.00384378 20.6521C0.00384378 19.9863 0.128767 19.5673 0.780288 19.221C12.55 12.9473 24.3042 6.64487 36.0643 0.352046C36.2796 0.237249 36.5121 0.158803 36.885 0Z" fill="#EB1F27"/>
<path d="M41.3897 81.8547C41.3897 81.3687 41.3897 81.0282 41.3897 80.6895C41.3897 77.1231 41.432 73.5567 41.3628 69.9923C41.3436 69.0318 41.6799 68.5152 42.4506 68.0101C49.9709 63.091 57.4644 58.1318 64.9828 53.2108C65.4864 52.8817 65.6324 52.5354 65.6324 51.9748C65.619 43.5046 65.6036 35.0364 65.6517 26.5662C65.6574 25.6708 65.1462 25.4393 64.5658 25.1236C57.0954 21.0502 49.6327 16.9653 42.145 12.9225C41.4185 12.5303 41.1764 12.0921 41.1879 11.2905C41.2302 8.07613 41.2013 4.85988 41.1994 1.64363C41.1994 1.17679 41.1994 0.709942 41.1994 0.0288086C42.2757 0.587491 43.1713 1.03903 44.0554 1.51161C55.1216 7.44474 66.184 13.3855 77.2618 19.2976C77.8403 19.6056 78.0017 19.9443 78.0017 20.5566C77.9844 33.8023 77.9825 47.048 77.996 60.2919C77.996 60.906 77.8307 61.2562 77.2676 61.5738C67.4448 67.1166 57.6354 72.6843 47.8261 78.2481C45.9965 79.2851 44.1745 80.3355 42.3449 81.3745C42.0777 81.5256 41.7952 81.6519 41.3897 81.8547Z" fill="#F16100"/>
<path d="M24.4873 24.9419C28.6424 25.1485 32.7072 25.2059 36.7374 25.5962C40.045 25.9158 42.8145 29.021 43.2757 32.3234C43.516 34.0492 43.5313 35.7444 43.0259 37.4204C42.3321 39.7278 40.7753 41.2814 38.6382 42.3127C38.2711 42.4906 37.8983 42.659 37.4197 42.8809C39.9086 47.5609 42.3724 52.2006 44.9458 57.0412C42.7165 57.0412 40.6869 57.0642 38.6574 57.0106C38.4191 57.0049 38.1193 56.6203 37.9713 56.3448C35.7842 52.2905 33.6221 48.2229 31.4407 44.1648C31.287 43.8778 31.0313 43.6444 30.8238 43.388C30.7335 43.4301 30.645 43.4722 30.5547 43.5142C30.5317 43.8816 30.4855 44.247 30.4855 44.6144C30.4817 48.4027 30.4644 52.191 30.5009 55.9794C30.5086 56.7791 30.3356 57.1178 29.4477 57.0814C27.8218 57.0125 26.192 57.0623 24.4873 57.0623V24.9419ZM30.5528 37.6481C32.171 37.5409 33.7412 37.5505 35.2691 37.3037C36.8643 37.0473 37.5735 35.9204 37.5427 34.1601C37.5158 32.752 36.4972 31.4356 35.1058 31.2615C33.6259 31.0759 32.123 31.0625 30.5528 30.9688V37.6481Z" fill="#EB1F27"/>
<path d="M49.5254 25.2056H55.464V56.9452H49.5254V25.2056Z" fill="#F05F00"/>
</g>
<defs>
<clipPath id="clip0_194_30">
<rect width="78" height="82" fill="white"/>
</clipPath>
</defs>
</svg>
